<?xml version="1.0" encoding="utf-8"?>
<!-- Generator: Adobe Illustrator 21.0.0, SVG Export Plug-In . SVG Version: 6.00 Build 0)  -->
<svg version="1.1" id="Layer_1" xmlns="http://www.w3.org/2000/svg" xmlns:xlink="http://www.w3.org/1999/xlink" x="0px" y="0px"
	 viewBox="0 0 763.8 749" style="enable-background:new 0 0 763.8 749;" xml:space="preserve">
<style type="text/css">
	.st0{fill:#70CADB;}
	.st1{fill:#E01765;}
	.st2{fill:#E8A723;}
	.st3{fill:#3EB890;}
	.st4{fill:#CC2027;}
	.st5{fill:#361238;}
	.st6{fill:#65863A;}
	.st7{fill:#1A937D;}
</style>
<title>background</title>
<title>Layer 1</title>
<path class="st0" d="M74.9,401.2C47.3,401.4,24,385,15.4,359.3c-0.3-1-0.6-1.9-0.9-2.9c-9.4-32.8,8.8-67.2,41.4-78.2L579,103
	c6.2-1.8,12.6-2.7,19.1-2.8c28.3-0.2,52.3,16.6,61.1,42.8l0.8,2.5c9.8,34.2-14.5,64.7-43.7,74.5c0,0-5.3,1.8-520.2,177.6
	C89.3,399.9,82.1,401.1,74.9,401.2L74.9,401.2z"/>
<path class="st1" d="M162.1,658.5c-27.8,0.2-51.2-16-59.7-41.3c-0.3-1-0.6-1.9-0.9-2.9c-9.5-33.2,8.7-68,41.4-79L666,358.5
	c6.8-2.3,13.7-3.4,20.8-3.5c27.9-0.2,52.3,16.8,61,42.4l0.8,2.7c5.1,17.7,2.1,37.5-8,53.2c-7.5,11.7-31.1,21.9-31.1,21.9
	L184.3,654.7C177.2,657.1,169.7,658.4,162.1,658.5L162.1,658.5z"/>
<path class="st2" d="M597.6,659.6c-27.8,0.3-52.6-17.4-61.5-43.8L361.5,97.2l-0.9-2.9c-9.5-33.1,8.7-67.6,41.3-78.6
	c6.5-2.2,13.3-3.3,20.1-3.4c10.1-0.1,19.8,2.2,29,6.7c15.3,7.6,26.9,20.9,32.4,37.1L658,574.8l0.5,1.7c9.8,34.3-8.3,68.9-41,79.8
	C611.1,658.4,604.4,659.5,597.6,659.6L597.6,659.6z"/>
<path class="st3" d="M338.1,741c-27.8,0.3-52.7-17.4-61.5-43.8L102,178.6c-11.4-33.6,6.7-70,40.3-81.4c0,0,0.1,0,0.1,0
	c6.5-2.2,13.2-3.3,20-3.4c27.8-0.3,52.7,17.4,61.5,43.8l174.6,518.6c11.4,33.6-6.7,70-40.3,81.4c-0.1,0-0.1,0-0.2,0.1
	C351.6,739.8,344.8,740.9,338.1,741L338.1,741L338.1,741z"/>
<path class="st4" d="M511.5,542.8l121.7-41.6L593.5,383l-121.9,41.2L511.5,542.8z"/>
<path class="st5" d="M252.4,625.4l121.7-41.6L334,464.7l-121.9,41.2L252.4,625.4z"/>
<path class="st6" d="M424.8,285.4l121.7-41.6L507.3,127l-122,40.9L424.8,285.4z"/>
<path class="st7" d="M165.7,367.9l121.7-41.6L247.6,208l-122,40.9L165.7,367.9z"/>
</svg>
