<?xml version="1.0" encoding="UTF-8"?>
<svg width="256px" height="256px" viewBox="0 0 256 256" version="1.1" xmlns="http://www.w3.org/2000/svg" xmlns:xlink="http://www.w3.org/1999/xlink">
    <!-- Generator: Sketch 43.2 (39069) - http://www.bohemiancoding.com/sketch -->
    <title>android</title>
    <desc>Created with Sketch.</desc>
    <defs></defs>
    <g id="langs" stroke="none" stroke-width="1" fill="none" fill-rule="evenodd">
        <g id="teamcode" transform="translate(-1149.000000, -736.000000)">
            <g id="android" transform="translate(1149.000000, 736.000000)">
                <rect id="Rectangle" fill="#A4C439" x="0" y="0" width="256" height="256"></rect>
                <g transform="translate(49.000000, 33.000000)" id="Shape" fill-rule="nonzero" fill="#FFFFFF">
                    <path d="M131.77602,143.851275 C131.77602,148.104922 128.3448,151.556812 124.083203,151.556812 L34.9819875,151.556812 C30.72834,151.556812 27.2847975,148.10532 27.2847975,143.851275 L27.2847975,64.2467325 C50.640705,64.16127 105.127223,64.16127 131.77602,64.2467325 L131.77602,143.851275 Z"></path>
                    <path d="M60.292005,23.432625 C60.73164,24.2955975 60.39774,25.3744125 59.5228425,25.8219975 L59.5228425,25.8219975 C58.655895,26.2616325 57.5774775,25.9158075 57.1378425,25.04886 L45.8750775,3.09732 C45.4274925,2.2224225 45.7852425,1.16388 46.6525875,0.71232 L46.6525875,0.71232 C47.519535,0.2643375 48.5900025,0.61056 49.0375875,1.48188 L60.2924025,23.43342 L60.292005,23.432625 Z"></path>
                    <path d="M101.31321,24.3568125 C100.824683,25.2074625 99.74229,25.50042 98.8872675,24.9959925 L98.8872675,24.9959925 C98.0405925,24.515415 97.75161,23.4330225 98.2480875,22.581975 L110.58132,1.2243 C111.069847,0.377625 112.160587,0.0767175 112.998915,0.57717 L112.998915,0.57717 C113.853937,1.061325 114.142522,2.1484875 113.654392,2.99079 L101.312813,24.356415 L101.31321,24.3568125 Z"></path>
                    <path d="M158.978535,122.265833 C158.978535,128.456895 153.964073,133.48368 147.760688,133.48368 L147.760688,133.48368 C141.557303,133.48368 136.530518,128.46087 136.530518,122.265833 L136.530518,73.172595 C136.530518,66.96921 141.553328,61.9587225 147.760688,61.9587225 L147.760688,61.9587225 C153.960098,61.9587225 158.978535,66.9696075 158.978535,73.172595 L158.978535,122.265833 Z"></path>
                    <path d="M22.45716,122.265833 C22.45716,128.456895 17.4264,133.48368 11.2432875,133.48368 L11.2432875,133.48368 C5.0359275,133.48368 0.0170925,128.46087 0.0170925,122.265833 L0.0170925,73.172595 C0.0170925,66.96921 5.031555,61.9587225 11.2432875,61.9587225 L11.2432875,61.9587225 C17.4264,61.9587225 22.45716,66.9696075 22.45716,73.172595 L22.45716,122.265833 Z"></path>
                    <path d="M71.3103075,178.449675 C71.3103075,184.640737 66.2874975,189.667522 60.0761625,189.667522 L60.0761625,189.667522 C53.8851,189.667522 48.8706375,184.644712 48.8706375,178.449675 L48.8706375,129.356438 C48.8706375,123.16935 53.8851,118.130243 60.0761625,118.130243 L60.0761625,118.130243 C66.2835225,118.130243 71.3103075,123.16935 71.3103075,129.356438 L71.3103075,178.449675 Z"></path>
                    <path d="M110.227545,178.449675 C110.227545,184.640737 105.204735,189.667522 98.997375,189.667522 L98.997375,189.667522 C92.8063125,189.667522 87.7795275,184.644712 87.7795275,178.449675 L87.7795275,129.356438 C87.7795275,123.16935 92.8023375,118.130243 98.997375,118.130243 L98.997375,118.130243 C105.20076,118.130243 110.227545,123.16935 110.227545,129.356438 L110.227545,178.449675 Z"></path>
                    <path d="M79.532595,11.7910425 C52.2446175,11.7910425 29.771955,32.55843 26.7680475,59.252145 L132.293168,59.252145 C129.297608,32.55843 106.83687,11.79144 79.532595,11.79144 L79.532595,11.7910425 Z M55.72473,40.564875 C53.29044,40.564875 51.324405,38.6071875 51.324405,36.181245 C51.324405,33.76365 53.29044,31.805565 55.72473,31.805565 C58.134375,31.805565 60.10041,33.7632525 60.10041,36.181245 C60.10041,38.6071875 58.134375,40.564875 55.72473,40.564875 Z M103.433873,40.564875 C101.00793,40.564875 99.041895,38.6071875 99.041895,36.181245 C99.041895,33.76365 101.00793,31.805565 103.433873,31.805565 C105.867765,31.805565 107.8179,33.7632525 107.8179,36.181245 C107.8179,38.6071875 105.868162,40.564875 103.433873,40.564875 Z"></path>
                </g>
            </g>
        </g>
    </g>
</svg>