<?xml version="1.0" encoding="UTF-8"?>
<svg width="256px" height="256px" viewBox="0 0 256 256" version="1.1" xmlns="http://www.w3.org/2000/svg" xmlns:xlink="http://www.w3.org/1999/xlink">
    <!-- Generator: Sketch 43.2 (39069) - http://www.bohemiancoding.com/sketch -->
    <title>aspdotnet</title>
    <desc>Created with Sketch.</desc>
    <defs></defs>
    <g id="langs" stroke="none" stroke-width="1" fill="none" fill-rule="evenodd">
        <g id="teamcode" transform="translate(-1149.000000, -415.000000)">
            <g id="aspdotnet" transform="translate(1149.000000, 415.000000)">
                <rect id="Rectangle" fill="#3463B1" x="0" y="0" width="256" height="256"></rect>
                <path d="M53.7352205,139.279 L37.3192205,139.279 L34.0702205,148 L26.2612205,148 L41.7652205,107.644 L49.4602205,107.644 L64.9072205,148 L56.8132205,148 L53.7352205,139.279 Z M39.3142205,133.579 L51.7972205,133.579 L45.5842205,115.282 L39.3142205,133.579 Z M66.6198718,144.352 L70.2108718,139.621 C71.7688796,140.761006 73.3743635,141.577998 75.0273718,142.072 C76.6803801,142.566002 78.4948619,142.813 80.4708718,142.813 C82.8268836,142.813 84.7173647,142.319005 86.1423718,141.331 C87.5673789,140.342995 88.2798718,138.86101 88.2798718,136.885 C88.2798718,135.440993 87.9378752,134.291504 87.2538718,133.4365 C86.5698684,132.581496 85.5913782,131.888003 84.3183718,131.356 C83.0453654,130.823997 81.287883,130.254003 79.0458718,129.646 C75.3978536,128.695995 72.6333812,127.299509 70.7523718,125.4565 C68.8713624,123.613491 67.9308718,121.134016 67.9308718,118.018 C67.9308718,115.623988 68.5578655,113.572009 69.8118718,111.862 C71.0658781,110.151991 72.7663611,108.860004 74.9133718,107.986 C77.0603825,107.111996 79.4828583,106.675 82.1808718,106.675 C87.1208965,106.675 91.471853,108.004987 95.2338718,110.665 L91.8708718,115.51 C90.2748638,114.521995 88.7168794,113.800002 87.1968718,113.344 C85.6768642,112.887998 84.0618803,112.66 82.3518718,112.66 C80.2238612,112.66 78.5233782,113.068496 77.2503718,113.8855 C75.9773654,114.702504 75.3408718,115.927992 75.3408718,117.562 C75.3408718,119.234008 75.9868653,120.497496 77.2788718,121.3525 C78.5708783,122.207504 80.7178568,123.033996 83.7198718,123.832 C87.6718916,124.858005 90.6928613,126.33049 92.7828718,128.2495 C94.8728822,130.16851 95.9178718,132.951982 95.9178718,136.6 C95.9178718,139.336014 95.2338786,141.644491 93.8658718,143.5255 C92.497865,145.406509 90.6453835,146.802995 88.3083718,147.715 C85.9713601,148.627005 83.377886,149.083 80.5278718,149.083 C77.8298583,149.083 75.3028836,148.674504 72.9468718,147.8575 C70.59086,147.040496 68.4818811,145.872008 66.6198718,144.352 Z M132.571523,121.153 C132.571523,124.155015 131.86853,126.70099 130.462523,128.791 C129.056516,130.88101 127.204035,132.429495 124.905023,133.4365 C122.606012,134.443505 120.088537,134.947 117.352523,134.947 L110.284523,134.947 L110.284523,148 L102.817523,148 L102.817523,107.644 L117.352523,107.644 C121.912546,107.644 125.589009,108.755489 128.382023,110.9785 C131.175037,113.201511 132.571523,116.592977 132.571523,121.153 Z M110.227523,113.629 L110.227523,128.905 L116.668523,128.905 C119.024535,128.905 121.000515,128.268506 122.596523,126.9955 C124.192531,125.722494 124.990523,123.794013 124.990523,121.21 C124.990523,118.511987 124.211531,116.574006 122.653523,115.396 C121.095515,114.217994 119.119535,113.629 116.725523,113.629 L110.227523,113.629 Z M129.553174,144.295 C129.553174,141.444986 130.99716,140.02 133.885174,140.02 C135.405182,140.02 136.497671,140.409496 137.162674,141.1885 C137.827678,141.967504 138.160174,143.002994 138.160174,144.295 C138.160174,145.587006 137.827678,146.622496 137.162674,147.4015 C136.497671,148.180504 135.405182,148.57 133.885174,148.57 C130.99716,148.57 129.553174,147.145014 129.553174,144.295 Z M147.225826,125.485 C147.225826,123.356989 147.092827,121.191011 146.826826,118.987 L151.443826,118.987 C151.633827,120.013005 151.766825,121.380991 151.842826,123.091 L151.956826,123.091 C152.90683,121.608993 154.236817,120.421504 155.946826,119.5285 C157.656834,118.635496 159.689814,118.189 162.045826,118.189 C165.693844,118.189 168.401317,119.243489 170.168326,121.3525 C171.935334,123.461511 172.818826,126.092984 172.818826,129.247 L172.818826,148 L167.973826,148 L167.973826,130.216 C167.973826,127.897988 167.403831,125.988508 166.263826,124.4875 C165.12382,122.986492 163.280838,122.236 160.734826,122.236 C158.112813,122.236 156.013334,123.100491 154.436326,124.8295 C152.859318,126.558509 152.070826,128.733987 152.070826,131.356 L152.070826,148 L147.225826,148 L147.225826,125.485 Z M206.964477,135.232 L185.418477,135.232 C185.608478,138.196015 186.501469,140.551991 188.097477,142.3 C189.693485,144.048009 191.973462,144.922 194.937477,144.922 C196.685486,144.922 198.25297,144.684502 199.639977,144.2095 C201.026984,143.734498 202.42347,143.022005 203.829477,142.072 L205.995477,145.207 C204.361469,146.385006 202.622986,147.277997 200.779977,147.886 C198.936968,148.494003 196.894488,148.798 194.652477,148.798 C190.206455,148.798 186.738989,147.392014 184.249977,144.58 C181.760964,141.767986 180.516477,138.025023 180.516477,133.351 C180.516477,130.348985 181.048472,127.708011 182.112477,125.428 C183.176482,123.147989 184.724967,121.371506 186.757977,120.0985 C188.790987,118.825494 191.232463,118.189 194.082477,118.189 C198.300498,118.189 201.520966,119.556986 203.743977,122.293 C205.966988,125.029014 207.078477,128.657977 207.078477,133.18 C207.078477,134.092005 207.040477,134.775998 206.964477,135.232 Z M202.347477,131.47 C202.271477,128.581986 201.530484,126.264009 200.124477,124.516 C198.71847,122.767991 196.68549,121.894 194.025477,121.894 C191.327463,121.894 189.237484,122.796491 187.755477,124.6015 C186.27347,126.406509 185.475477,128.695986 185.361477,131.47 L202.347477,131.47 Z M220.704128,118.987 L228.399128,118.987 L228.399128,122.692 L220.704128,122.692 L220.704128,140.191 C220.704128,143.307016 222.129114,144.865 224.979128,144.865 C226.005133,144.865 226.955124,144.732001 227.829128,144.466 L228.570128,148.057 C227.278122,148.551002 225.777137,148.798 224.067128,148.798 C221.521115,148.798 219.516636,148.085507 218.053628,146.6605 C216.590621,145.235493 215.859128,143.212013 215.859128,140.59 L215.859128,122.692 L210.729128,122.692 L210.729128,119.557 L215.802128,118.987 L215.802128,111.862 L220.704128,110.152 L220.704128,118.987 Z" id="ASP.net" fill="#FFFFFF"></path>
            </g>
        </g>
    </g>
</svg>