<?xml version="1.0" encoding="UTF-8"?>
<svg width="256px" height="256px" viewBox="0 0 256 256" version="1.1" xmlns="http://www.w3.org/2000/svg" xmlns:xlink="http://www.w3.org/1999/xlink">
    <!-- Generator: Sketch 43.2 (39069) - http://www.bohemiancoding.com/sketch -->
    <title>c</title>
    <desc>Created with Sketch.</desc>
    <defs></defs>
    <g id="langs" stroke="none" stroke-width="1" fill="none" fill-rule="evenodd">
        <g id="teamcode" transform="translate(-424.000000, -120.000000)">
            <g id="c" transform="translate(424.000000, 120.000000)">
                <rect id="Rectangle" fill="#1174B4" x="0" y="0" width="256" height="256"></rect>
                <path d="M174.577442,85.3 L163.477442,97.9 C160.077425,94.9999855 156.177464,92.750008 151.777442,91.15 C147.37742,89.549992 142.777466,88.75 137.977442,88.75 C126.377384,88.75 117.827469,92.2749647 112.327442,99.325 C106.827414,106.375035 104.077442,115.849941 104.077442,127.75 C104.077442,139.450059 106.827414,148.824965 112.327442,155.875 C117.827469,162.925035 126.227385,166.45 137.527442,166.45 C142.827468,166.45 147.727419,165.47501 152.227442,163.525 C156.727464,161.57499 160.677425,159.000016 164.077442,155.8 L175.927442,168.7 C171.427419,173.200022 165.802476,176.849986 159.052442,179.65 C152.302408,182.450014 144.927482,183.85 136.927442,183.85 C125.627385,183.85 115.977482,181.475024 107.977442,176.725 C99.9774019,171.974976 93.9274624,165.375042 89.8274419,156.925 C85.7274214,148.474958 83.6774419,138.750055 83.6774419,127.75 C83.6774419,116.549944 85.7524211,106.750042 89.9024419,98.35 C94.0524626,89.949958 100.152402,83.4250233 108.202442,78.775 C116.252482,74.1249768 125.927385,71.8 137.227442,71.8 C144.627479,71.8 151.627409,72.999988 158.227442,75.4 C164.827475,77.800012 170.27742,81.099979 174.577442,85.3 Z" id="C" fill="#FFFFFF"></path>
            </g>
        </g>
    </g>
</svg>