<?xml version="1.0" encoding="UTF-8"?>
<svg width="256px" height="256px" viewBox="0 0 256 256" version="1.1" xmlns="http://www.w3.org/2000/svg" xmlns:xlink="http://www.w3.org/1999/xlink">
    <!-- Generator: Sketch 43.2 (39069) - http://www.bohemiancoding.com/sketch -->
    <title>c_plus_plus</title>
    <desc>Created with Sketch.</desc>
    <defs></defs>
    <g id="langs" stroke="none" stroke-width="1" fill="none" fill-rule="evenodd">
        <g id="teamcode" transform="translate(-781.000000, -120.000000)">
            <g id="c_plus_plus" transform="translate(781.000000, 120.000000)">
                <rect id="Rectangle" fill="#00579F" x="0" y="0" width="256" height="256"></rect>
                <path d="M126.917326,95.63 L118.407326,105.29 C115.800646,103.066656 112.810676,101.341673 109.437326,100.115 C106.063975,98.8883272 102.537344,98.275 98.8573256,98.275 C89.9639478,98.275 83.4090134,100.977473 79.1923256,106.3825 C74.9756379,111.787527 72.8673256,119.051621 72.8673256,128.175 C72.8673256,137.145045 74.9756379,144.332473 79.1923256,149.7375 C83.4090134,155.142527 89.848949,157.845 98.5123256,157.845 C102.575679,157.845 106.332308,157.097507 109.782326,155.6025 C113.232343,154.107493 116.260646,152.133346 118.867326,149.68 L127.952326,159.57 C124.502308,163.020017 120.189851,165.818323 115.014826,167.965 C109.8398,170.111677 104.18569,171.185 98.0523256,171.185 C89.388949,171.185 81.9906896,169.364185 75.8573256,165.7225 C69.7239616,162.080815 65.0856747,157.020866 61.9423256,150.5425 C58.7989766,144.064134 57.2273256,136.608376 57.2273256,128.175 C57.2273256,119.58829 58.818143,112.075032 61.9998256,105.635 C65.1815082,99.1949678 69.8581281,94.1925178 76.0298256,90.6275 C82.2015231,87.0624822 89.618949,85.28 98.2823256,85.28 C103.955687,85.28 109.3223,86.1999908 114.382326,88.04 C119.442351,89.8800092 123.620642,92.4099839 126.917326,95.63 Z" id="C" fill="#FFFFFF"></path>
                <path d="M161.504651,134.82 L151.724651,134.82 L151.724651,144.78 L147.284651,144.78 L147.284651,134.82 L137.504651,134.82 L137.504651,130.68 L147.284651,130.68 L147.284651,120.78 L151.724651,120.78 L151.724651,130.68 L161.504651,130.68 L161.504651,134.82 Z M198.8,134.82 L189.02,134.82 L189.02,144.78 L184.58,144.78 L184.58,134.82 L174.8,134.82 L174.8,130.68 L184.58,130.68 L184.58,120.78 L189.02,120.78 L189.02,130.68 L198.8,130.68 L198.8,134.82 Z" id="++" fill="#FFFFFF"></path>
            </g>
        </g>
    </g>
</svg>