<?xml version="1.0" encoding="UTF-8"?>
<svg width="256px" height="256px" viewBox="0 0 256 256" version="1.1" xmlns="http://www.w3.org/2000/svg" xmlns:xlink="http://www.w3.org/1999/xlink">
    <!-- Generator: Sketch 43.2 (39069) - http://www.bohemiancoding.com/sketch -->
    <title>c_sharp</title>
    <desc>Created with Sketch.</desc>
    <defs></defs>
    <g id="langs" stroke="none" stroke-width="1" fill="none" fill-rule="evenodd">
        <g id="teamcode" transform="translate(-1149.000000, -120.000000)">
            <g id="c_sharp" transform="translate(1149.000000, 120.000000)">
                <rect id="Rectangle" fill="#823389" x="0" y="0" width="256" height="256"></rect>
                <path d="M152.181558,95.63 L143.671558,105.29 C141.064878,103.066656 138.074908,101.341673 134.701558,100.115 C131.328208,98.8883272 127.801577,98.275 124.121558,98.275 C115.22818,98.275 108.673246,100.977473 104.456558,106.3825 C100.23987,111.787527 98.1315581,119.051621 98.1315581,128.175 C98.1315581,137.145045 100.23987,144.332473 104.456558,149.7375 C108.673246,155.142527 115.113181,157.845 123.776558,157.845 C127.839912,157.845 131.596541,157.097507 135.046558,155.6025 C138.496575,154.107493 141.524878,152.133346 144.131558,149.68 L153.216558,159.57 C149.766541,163.020017 145.454084,165.818323 140.279058,167.965 C135.104032,170.111677 129.449922,171.185 123.316558,171.185 C114.653181,171.185 107.254922,169.364185 101.121558,165.7225 C94.9881941,162.080815 90.3499072,157.020866 87.2065581,150.5425 C84.0632091,144.064134 82.4915581,136.608376 82.4915581,128.175 C82.4915581,119.58829 84.0823756,112.075032 87.2640581,105.635 C90.4457407,99.1949678 95.1223606,94.1925178 101.294058,90.6275 C107.465756,87.0624822 114.883181,85.28 123.546558,85.28 C129.21992,85.28 134.586533,86.1999908 139.646558,88.04 C144.706583,89.8800092 148.884875,92.4099839 152.181558,95.63 Z" id="C" fill="#FFFFFF"></path>
                <path d="M184.075442,125.272 L181.915442,133.624 L187.195442,133.624 L187.195442,137.368 L180.907442,137.368 L178.939442,145 L174.187442,145 L176.203442,137.368 L168.523442,137.368 L166.555442,145 L161.803442,145 L163.819442,137.368 L158.443442,137.368 L158.443442,133.624 L164.779442,133.624 L166.987442,125.272 L161.659442,125.272 L161.659442,121.48 L167.995442,121.48 L169.963442,113.896 L174.667442,113.896 L172.699442,121.48 L180.379442,121.48 L182.347442,113.896 L187.051442,113.896 L185.083442,121.48 L190.411442,121.48 L190.411442,125.272 L184.075442,125.272 Z M179.371442,125.272 L171.691442,125.272 L169.531442,133.624 L177.163442,133.624 L179.371442,125.272 Z" id="#" fill="#FFFFFF"></path>
            </g>
        </g>
    </g>
</svg>