<?xml version="1.0" encoding="UTF-8"?>
<svg width="256px" height="256px" viewBox="0 0 256 256" version="1.1" xmlns="http://www.w3.org/2000/svg" xmlns:xlink="http://www.w3.org/1999/xlink">
    <!-- Generator: Sketch 43.2 (39069) - http://www.bohemiancoding.com/sketch -->
    <title>html5</title>
    <desc>Created with Sketch.</desc>
    <defs></defs>
    <g id="langs" stroke="none" stroke-width="1" fill="none" fill-rule="evenodd">
        <g id="teamcode" transform="translate(-781.000000, -736.000000)">
            <g id="html5" transform="translate(781.000000, 736.000000)">
                <rect id="Rectangle" fill="#F36518" x="0" y="0" width="256" height="256"></rect>
                <g id="CSS3_and_HTML5_logos_and_wordmarks" transform="translate(62.000000, 54.000000)" fill-rule="nonzero">
                    <g id="g3054" transform="translate(0.339377, 0.000000)">
                        <polygon id="polygon3028" fill="#FFFFFF" points="131.409436 0.224219178 119.458553 134.104405 65.7388932 148.99726 12.1671452 134.125381 0.228920548 0.224219178"></polygon>
                        <polygon id="polygon3030" fill="#FFFFFF" points="66.8191781 137.613797 110.227288 125.579375 120.44011 11.1726247 66.8191781 11.1726247"></polygon>
                        <polygon id="polygon3032" fill="#F36518" points="42.5871781 44.0178411 65.8191781 44.0178411 65.8191781 27.5952329 65.7624 27.5952329 24.6395178 27.5952329 25.0326247 32.0011397 29.0689315 77.2568877 65.8191781 77.2568877 65.8191781 60.8346411 44.088 60.8346411"></polygon>
                        <polygon id="polygon3034" fill="#F36518" points="46.2882411 85.4683726 37.4008438 85.4683726 29.8027068 85.4683726 32.1034849 111.25394 65.7435945 120.592668 65.8191781 120.571693 65.8191781 103.485468 65.747211 103.504636 47.4574356 98.5660274"></polygon>
                        <polygon id="polygon3044" fill="#F36518" points="64.7624 77.2568877 84.9848 77.2568877 83.0785753 98.5555397 64.7624 103.499211 64.7624 120.584712 98.4292712 111.25394 98.676274 108.479408 102.535375 65.244526 102.936077 60.8346411 98.5106411 60.8346411 64.7624 60.8346411"></polygon>
                        <polygon id="polygon3046" fill="#F36518" points="64.7624 43.9776986 64.7624 44.0178411 104.377589 44.0178411 104.377589 44.0178411 104.430389 44.0178411 104.759847 40.3265425 105.508088 32.0011397 105.900833 27.5952329 64.7624 27.5952329 64.7624 37.7950356"></polygon>
                    </g>
                </g>
            </g>
        </g>
    </g>
</svg>