<?xml version="1.0" encoding="UTF-8"?>
<svg width="256px" height="256px" viewBox="0 0 256 256" version="1.1" xmlns="http://www.w3.org/2000/svg" xmlns:xlink="http://www.w3.org/1999/xlink">
    <!-- Generator: Sketch 43.2 (39069) - http://www.bohemiancoding.com/sketch -->
    <title>Java</title>
    <desc>Created with Sketch.</desc>
    <defs></defs>
    <g id="langs" stroke="none" stroke-width="1" fill="none" fill-rule="evenodd">
        <g id="teamcode" transform="translate(-781.000000, -415.000000)">
            <g id="Java" transform="translate(781.000000, 415.000000)">
                <rect id="Rectangle" fill="#D42327" x="0" y="0" width="256" height="256"></rect>
                <path d="M39.369,149.538 L43.497,141.196 C44.2996707,141.712003 45.2886608,142.127665 46.464,142.443 C47.6393392,142.758335 48.828994,142.916 50.033,142.916 C55.5370276,142.916 58.289,139.5907 58.289,132.94 L58.289,90.112 L69.555,90.112 L69.555,132.854 C69.555,136.466018 68.8813401,139.762652 67.534,142.744 C66.18666,145.725348 64.1083474,148.118991 61.299,149.925 C58.4896527,151.731009 54.9923543,152.634 50.807,152.634 C46.3923113,152.634 42.5796828,151.60201 39.369,149.538 Z M79.535,138.444 C79.535,132.595971 81.6133126,128.525345 85.77,126.232 C89.9266875,123.938655 95.9036277,122.792 103.701,122.792 C105.593009,122.792 107.026328,122.820666 108.001,122.878 L108.001,120.642 C108.001,115.825976 104.933697,113.418 98.799,113.418 C94.3843113,113.418 90.0556879,114.564655 85.813,116.858 L82.201,109.72 C84.6090121,108.286659 87.3323182,107.154337 90.371,106.323 C93.4096819,105.491663 96.4196518,105.076 99.401,105.076 C106.223701,105.076 111.154318,106.609651 114.193,109.677 C117.231682,112.744349 118.751,117.431302 118.751,123.738 L118.751,140.766 C118.751,142.944678 119.008997,146.355977 119.525,151 L109.635,151 C109.233665,148.649322 108.975667,146.958005 108.861,145.926 L108.603,145.926 C106.997659,148.047344 105.077011,149.623995 102.841,150.656 C100.604989,151.688005 97.6523517,152.204 93.983,152.204 C89.8549794,152.204 86.4150138,151.014345 83.663,148.635 C80.9109863,146.255655 79.535,142.858689 79.535,138.444 Z M108.087,133.714 L108.087,130.102 L104.819,130.016 C99.7736415,130.016 96.1616776,130.603661 93.983,131.779 C91.8043225,132.954339 90.715,134.917986 90.715,137.67 C90.715,139.619343 91.2883276,141.124328 92.435,142.185 C93.5816724,143.245672 95.1296569,143.776 97.079,143.776 C99.200344,143.776 101.092325,143.303005 102.755,142.357 C104.417675,141.410995 105.721995,140.178341 106.668,138.659 C107.614005,137.139659 108.087,135.491342 108.087,133.714 Z M151.865,151 L140.083,151 L123.399,106.28 L135.095,106.28 L146.017,140.078 L146.275,140.078 L156.939,106.28 L168.205,106.28 L151.865,151 Z M170.703,138.444 C170.703,132.595971 172.781313,128.525345 176.938,126.232 C181.094687,123.938655 187.071628,122.792 194.869,122.792 C196.761009,122.792 198.194328,122.820666 199.169,122.878 L199.169,120.642 C199.169,115.825976 196.101697,113.418 189.967,113.418 C185.552311,113.418 181.223688,114.564655 176.981,116.858 L173.369,109.72 C175.777012,108.286659 178.500318,107.154337 181.539,106.323 C184.577682,105.491663 187.587652,105.076 190.569,105.076 C197.391701,105.076 202.322318,106.609651 205.361,109.677 C208.399682,112.744349 209.919,117.431302 209.919,123.738 L209.919,140.766 C209.919,142.944678 210.176997,146.355977 210.693,151 L200.803,151 C200.401665,148.649322 200.143667,146.958005 200.029,145.926 L199.771,145.926 C198.165659,148.047344 196.245011,149.623995 194.009,150.656 C191.772989,151.688005 188.820352,152.204 185.151,152.204 C181.022979,152.204 177.583014,151.014345 174.831,148.635 C172.078986,146.255655 170.703,142.858689 170.703,138.444 Z M199.255,133.714 L199.255,130.102 L195.987,130.016 C190.941641,130.016 187.329678,130.603661 185.151,131.779 C182.972322,132.954339 181.883,134.917986 181.883,137.67 C181.883,139.619343 182.456328,141.124328 183.603,142.185 C184.749672,143.245672 186.297657,143.776 188.247,143.776 C190.368344,143.776 192.260325,143.303005 193.923,142.357 C195.585675,141.410995 196.889995,140.178341 197.836,138.659 C198.782005,137.139659 199.255,135.491342 199.255,133.714 Z" fill="#FFFFFF"></path>
            </g>
        </g>
    </g>
</svg>