<?xml version="1.0" encoding="UTF-8"?>
<svg width="256px" height="256px" viewBox="0 0 256 256" version="1.1" xmlns="http://www.w3.org/2000/svg" xmlns:xlink="http://www.w3.org/1999/xlink">
    <!-- Generator: Sketch 43.2 (39069) - http://www.bohemiancoding.com/sketch -->
    <title>Javascript</title>
    <desc>Created with Sketch.</desc>
    <defs></defs>
    <g id="langs" stroke="none" stroke-width="1" fill="none" fill-rule="evenodd">
        <g id="teamcode" transform="translate(-424.000000, -736.000000)">
            <g id="Javascript" transform="translate(424.000000, 736.000000)">
                <rect id="Rectangle" fill="#F1DD3F" x="0" y="0" width="256" height="256"></rect>
                <path d="M70.5921505,157.045 L76.1121505,145.89 C77.1854892,146.580003 78.507976,147.135831 80.0796505,147.5575 C81.6513251,147.979169 83.2421425,148.19 84.8521505,148.19 C92.2121873,148.19 95.8921505,143.743378 95.8921505,134.85 L95.8921505,77.58 L110.957151,77.58 L110.957151,134.735 C110.957151,139.565024 110.056326,143.973313 108.254651,147.96 C106.452975,151.946687 103.673836,155.147488 99.9171505,157.5625 C96.1604651,159.977512 91.4838452,161.185 85.8871505,161.185 C79.9837877,161.185 74.8855053,159.805014 70.5921505,157.045 Z M122.9225,151.64 L130.1675,142.095 C133.310849,144.395012 136.549983,146.043328 139.885,147.04 C143.220017,148.036672 146.880813,148.535 150.8675,148.535 C155.620857,148.535 159.434986,147.538343 162.31,145.545 C165.185014,143.551657 166.6225,140.561687 166.6225,136.575 C166.6225,133.661652 165.932507,131.342509 164.5525,129.6175 C163.172493,127.892491 161.198346,126.493339 158.63,125.42 C156.061654,124.346661 152.515856,123.196673 147.9925,121.97 C140.632463,120.053324 135.055019,117.235852 131.26,113.5175 C127.464981,109.799148 125.5675,104.796698 125.5675,98.51 C125.5675,93.6799759 126.832487,89.5400173 129.3625,86.09 C131.892513,82.6399828 135.323312,80.0333422 139.655,78.27 C143.986688,76.5066579 148.874139,75.625 154.3175,75.625 C164.284216,75.625 173.062462,78.3083065 180.6525,83.675 L173.8675,93.45 C170.647484,91.4566567 167.504182,90.0000046 164.4375,89.08 C161.370818,88.1599954 158.112517,87.7 154.6625,87.7 C150.369145,87.7 146.938346,88.5241584 144.37,90.1725 C141.801654,91.8208416 140.5175,94.2933168 140.5175,97.59 C140.5175,100.96335 141.82082,103.512491 144.4275,105.2375 C147.03418,106.962509 151.365803,108.629992 157.4225,110.24 C165.395873,112.31001 171.490812,115.280814 175.7075,119.1525 C179.924188,123.024186 182.0325,128.639963 182.0325,136 C182.0325,141.520028 180.652514,146.177481 177.8925,149.9725 C175.132486,153.767519 171.395024,156.584991 166.68,158.425 C161.964976,160.265009 156.732529,161.185 150.9825,161.185 C145.539139,161.185 140.440857,160.360842 135.6875,158.7125 C130.934143,157.064158 126.679185,154.706682 122.9225,151.64 Z" id="JS" fill="#4A4A4A"></path>
            </g>
        </g>
    </g>
</svg>