<?xml version="1.0" encoding="UTF-8"?>
<svg width="256px" height="256px" viewBox="0 0 256 256" version="1.1" xmlns="http://www.w3.org/2000/svg" xmlns:xlink="http://www.w3.org/1999/xlink">
    <!-- Generator: Sketch 43.2 (39069) - http://www.bohemiancoding.com/sketch -->
    <title>nodejs</title>
    <desc>Created with Sketch.</desc>
    <defs></defs>
    <g id="langs" stroke="none" stroke-width="1" fill="none" fill-rule="evenodd">
        <g id="teamcode" transform="translate(-1149.000000, -1074.000000)">
            <g id="nodejs" transform="translate(1149.000000, 1074.000000)">
                <rect id="Rectangle" fill="#8FC540" x="0" y="0" width="256" height="256"></rect>
                <g id="nodejs-icon" transform="translate(64.000000, 58.000000)" fill-rule="nonzero" fill="#FFFFFF">
                    <path d="M58.252,1.79 C61.733,-0.2025 66.267,-0.2115 69.745,1.79 C87.2425,11.677 104.7455,21.5485 122.24,31.4415 C125.5305,33.295 127.7315,36.957 127.698,40.7485 L127.698,100.2325 C127.7225,104.181 125.304,107.9305 121.8325,109.742 C104.3925,119.5745 86.9615,129.419 69.5245,139.2515 C65.9715,141.283 61.3465,141.1265 57.9045,138.9285 C52.676,135.8975 47.4385,132.8815 42.2095,129.8535 C41.141,129.2165 39.9365,128.7095 39.182,127.6735 C39.849,126.7745 41.0415,126.6625 42.0105,126.27 C44.193,125.576 46.1975,124.462 48.2025,123.381 C48.7095,123.034 49.3285,123.167 49.8145,123.4775 C54.2855,126.041 58.717,128.679 63.203,131.218 C64.16,131.7705 65.129,131.037 65.947,130.581 C83.061,120.9085 100.196,111.2725 117.307,101.597 C117.941,101.292 118.2915,100.619 118.24,99.9245 C118.252,80.302 118.243,60.676 118.246,41.0535 C118.3185,40.2655 117.8625,39.541 117.15,39.2185 C99.7705,29.431 82.4,19.6285 65.0235,9.8385 C64.4072664,9.4148465 63.5939728,9.41365457 62.9765,9.8355 C45.6,19.6285 28.2325,29.44 10.856,39.227 C10.146,39.55 9.6695,40.2625 9.754,41.0535 C9.757,60.676 9.754,80.302 9.754,99.9275 C9.69228836,100.62153 10.0693855,101.280552 10.699,101.579 C15.336,104.2085 19.979,106.8195 24.619,109.44 C27.233,110.847 30.4425,111.683 33.3225,110.605 C35.864,109.6935 37.6455,107.1 37.597,104.4015 C37.621,84.8935 37.585,65.3825 37.615,45.8775 C37.5515,45.0115 38.373,44.296 39.215,44.3775 C41.443,44.3625 43.674,44.3475 45.902,44.3835 C46.832,44.3625 47.472,45.295 47.357,46.1675 C47.348,65.799 47.381,85.431 47.342,105.0625 C47.348,110.2945 45.1985,115.9875 40.359,118.5475 C34.397,121.636 27.028,120.981 21.138,118.0195 C16.039,115.4745 11.173,112.471 6.1645,109.7445 C2.684,107.943 0.2775,104.1785 0.302,100.233 L0.302,40.7485 C0.2655,36.8785 2.554,33.15 5.947,31.3235 C23.384,21.483 40.818,11.635 58.252,1.79 Z" id="Shape"></path>
                    <path d="M73.464,42.995 C81.069,42.5055 89.2105,42.705 96.054,46.4515 C101.3525,49.3225 104.29,55.348 104.3835,61.2345 C104.2355,62.0285 103.4055,62.4665 102.6475,62.412 C100.441,62.409 98.234,62.442 96.0275,62.397 C95.0915,62.433 94.5475,61.57 94.43,60.7425 C93.796,57.926 92.26,55.1365 89.609,53.778 C85.5395,51.7405 80.821,51.843 76.3835,51.8855 C73.144,52.0575 69.6605,52.338 66.916,54.243 C64.809,55.686 64.169,58.599 64.921,60.945 C65.63,62.6295 67.5745,63.173 69.1655,63.674 C78.3305,66.071 88.0425,65.8325 97.0325,68.987 C100.7545,70.273 104.3955,72.773 105.6695,76.67 C107.336,81.893 106.6055,88.136 102.8895,92.329 C99.876,95.7795 95.487,97.6575 91.1095,98.6775 C85.286,99.976 79.2425,100.009 73.3285,99.4325 C67.7675,98.7985 61.9805,97.3375 57.6875,93.5485 C54.0165,90.361 52.2235,85.3945 52.4015,80.601 C52.444,79.7915 53.25,79.227 54.0255,79.2935 C56.2475,79.2755 58.4695,79.2695 60.6915,79.2965 C61.579,79.233 62.237,80 62.2825,80.8365 C62.6925,83.52 63.701,86.3365 66.041,87.9275 C70.557,90.841 76.2235,90.6415 81.3945,90.723 C85.6785,90.533 90.4875,90.4755 93.9835,87.644 C95.828,86.029 96.3745,83.327 95.876,81.0025 C95.336,79.04 93.283,78.1255 91.52,77.5275 C82.4725,74.6655 72.652,75.704 63.692,72.4675 C60.0545,71.182 56.537,68.7515 55.1395,65.0145 C53.1895,59.7255 54.083,53.1835 58.1885,49.132 C62.1915,45.102 67.97,43.55 73.464,42.9945 L73.464,42.995 Z" id="Shape"></path>
                </g>
            </g>
        </g>
    </g>
</svg>