<?xml version="1.0" encoding="UTF-8"?>
<svg width="256px" height="256px" viewBox="0 0 256 256" version="1.1" xmlns="http://www.w3.org/2000/svg" xmlns:xlink="http://www.w3.org/1999/xlink">
    <!-- Generator: Sketch 43.2 (39069) - http://www.bohemiancoding.com/sketch -->
    <title>php</title>
    <desc>Created with Sketch.</desc>
    <defs></defs>
    <g id="langs" stroke="none" stroke-width="1" fill="none" fill-rule="evenodd">
        <g id="teamcode" transform="translate(-107.000000, -415.000000)">
            <g id="php" transform="translate(107.000000, 415.000000)">
                <rect id="Rectangle" fill="#4F5B96" x="0" y="0" width="256" height="256"></rect>
                <g id="php-icon" transform="translate(44.000000, 88.000000)" fill-rule="nonzero" fill="#FFFFFF">
                    <path d="M33.8206667,27.0203333 C39.0943333,27.0203333 42.609,27.9936667 44.3663333,29.9406667 C46.122,31.8876667 46.5403333,35.2296667 45.6216667,39.9653333 C44.662,44.897 42.814,48.417 40.0746667,50.526 C37.3353333,52.6353333 33.1666667,53.6886667 27.5703333,53.6886667 L19.127,53.6886667 L24.31,27.0203333 L33.8206667,27.0203333 L33.8206667,27.0203333 Z M0,80.6856667 L13.881,80.6856667 L17.1733333,63.7446667 L29.063,63.7446667 C34.3093333,63.7446667 38.625,63.1946667 42.013,62.0913333 C45.4013333,60.9896667 48.4803333,59.142 51.252,56.548 C53.578,54.4096667 55.46,52.0513333 56.9013333,49.4723333 C58.341,46.8953333 59.364,44.05 59.9686667,40.9386667 C61.4373333,33.3853333 60.329,27.502 56.647,23.287 C52.965,19.072 47.1073333,16.9646667 39.0773333,16.9646667 L12.3846667,16.9646667 L0,80.6856667 Z" id="Shape"></path>
                    <path d="M70.1633333,0.0236666667 L83.9346667,0.0236666667 L80.642,16.9646667 L92.9106667,16.9646667 C100.629667,16.9646667 105.954667,18.312 108.885333,21.0036667 C111.815667,23.697 112.693667,28.0603333 111.522,34.0923333 L105.76,63.7446667 L91.77,63.7446667 L97.2486667,35.5506667 C97.872,32.3433333 97.6433333,30.1556667 96.5606667,28.9893333 C95.478,27.8226667 93.1743333,27.239 89.651,27.239 L78.6443333,27.239 L71.55,63.7443333 L57.7783333,63.7443333 L70.1633333,0.0236666667 Z" id="Shape"></path>
                    <path d="M142.163333,27.0203333 C147.437,27.0203333 150.951667,27.9936667 152.709,29.9406667 C154.465333,31.8876667 154.883333,35.2296667 153.964333,39.9653333 C153.004667,44.897 151.157333,48.417 148.417333,50.526 C145.678,52.6353333 141.509333,53.6886667 135.913,53.6886667 L127.47,53.6886667 L132.653,27.0203333 L142.163333,27.0203333 L142.163333,27.0203333 Z M108.343,80.6856667 L122.224,80.6856667 L125.516,63.7446667 L137.405667,63.7446667 C142.652,63.7446667 146.967667,63.1946667 150.356,62.0913333 C153.744,60.9896667 156.823,59.142 159.595,56.548 C161.921333,54.4096667 163.803,52.0513333 165.244333,49.4723333 C166.683667,46.8953333 167.707,44.05 168.311333,40.9386667 C169.78,33.3853333 168.672,27.502 164.989667,23.287 C161.307667,19.072 155.45,16.9646667 147.42,16.9646667 L120.728,16.9646667 L108.343,80.6856667 Z" id="Shape"></path>
                </g>
            </g>
        </g>
    </g>
</svg>