<?xml version="1.0" encoding="UTF-8"?>
<svg width="256px" height="256px" viewBox="0 0 256 256" version="1.1" xmlns="http://www.w3.org/2000/svg" xmlns:xlink="http://www.w3.org/1999/xlink">
    <!-- Generator: Sketch 43.2 (39069) - http://www.bohemiancoding.com/sketch -->
    <title>python</title>
    <desc>Created with Sketch.</desc>
    <defs></defs>
    <g id="langs" stroke="none" stroke-width="1" fill="none" fill-rule="evenodd">
        <g id="teamcode" transform="translate(-781.000000, -1074.000000)">
            <g id="python" transform="translate(781.000000, 1074.000000)">
                <rect id="Rectangle" fill="#3572B0" x="0" y="0" width="256" height="256"></rect>
                <g transform="translate(58.000000, 58.000000)" fill-rule="nonzero">
                    <path d="M67.4892421,140.19493 C50.4486468,139.575689 39.9013533,134.52251 37.2178564,125.691983 L36.9059443,124.665593 L36.8621839,107.353779 C36.8121289,87.5402327 36.8297036,87.138846 37.8844037,83.9838753 C39.808953,78.2269964 44.3600604,74.5150908 51.4775037,72.8972669 L53.0513054,72.5395348 L72.6211839,72.45285 C86.6422792,72.3907395 92.4557495,72.3205215 93.1245931,72.2051986 C97.0432802,71.5295266 99.6138965,70.5178365 102.027318,68.7014443 C104.91041,66.5315651 107.290219,62.8174186 108.353711,58.8278891 C109.152461,55.8315031 109.131034,56.1588396 109.217351,45.6334011 L109.297595,35.8484644 L116.345485,35.8484644 L123.393375,35.8484644 L124.761901,36.2306349 C132.09438,38.2782822 137.417971,45.225463 139.68445,55.7042808 C140.556197,59.7347205 140.565302,59.8838481 140.566888,70.1656487 C140.568399,80.1718195 140.563867,80.2592193 139.864769,83.5414828 C139.177645,86.7675678 138.278237,89.39259 136.934169,92.0947493 C134.223545,97.5442583 130.226648,101.232566 125.172458,102.948355 C122.285236,103.928507 124.702006,103.846535 96.2966248,103.927741 L70.7052507,104.0009 L70.7052507,106.327385 L70.7052507,108.653875 L87.674933,108.7223 L104.644615,108.79073 L104.713041,117.138716 C104.750657,121.730109 104.734241,125.880716 104.676532,126.362281 C104.536917,127.527072 104.042782,128.909416 103.335763,130.113113 C102.607674,131.352679 100.397323,133.569743 98.896836,134.56552 C94.3392577,137.590101 87.3905411,139.433787 78.2321429,140.048462 C75.1506987,140.255268 70.7868997,140.31476 67.4892371,140.19493 L67.4892421,140.19493 Z M91.0278325,129.377566 C94.2987555,128.847286 96.6401461,125.646137 96.1008513,122.441741 C95.6560165,119.798606 93.6153839,117.754191 90.9872899,117.318703 C86.9752507,116.653888 83.3266441,120.338031 84.0405926,124.33305 C84.5599207,127.23904 86.8900565,129.28499 89.9330178,129.506818 C90.0459185,129.515026 90.5385876,129.456864 91.0278325,129.377566 Z M18.1099896,104.684861 C14.2607551,103.984972 10.4701262,101.652021 7.79150893,98.3343215 C2.71786564,92.0501832 0.156605679,81.5734602 0.478136036,68.4193083 C0.678507107,60.2221474 1.90397839,54.1371665 4.39695407,48.9607141 C7.61037932,42.2883171 12.4116811,38.3313788 18.8932698,37.0137338 C20.3129787,36.7251219 20.3841434,36.7243715 45.3889122,36.7343574 C59.1785762,36.7398463 70.5621709,36.7055531 70.6857876,36.6581166 C70.8819589,36.5828378 70.9105517,36.2778145 70.9105517,34.2600189 C70.9105517,32.988506 70.8951424,31.9333829 70.8763592,31.9153047 C70.8575256,31.8972265 63.205793,31.8510339 53.8724642,31.8126617 L36.9027819,31.7428969 L36.8675319,22.923211 C36.8289583,13.2633312 36.8212033,13.3753456 37.6482388,11.6012987 C40.5152321,5.45126143 48.9607745,1.71465568 62.4941358,0.608601321 C63.4726255,0.528634179 66.1207213,0.426993321 68.3787809,0.382739464 C83.3617783,0.0891019286 94.3525873,2.82884271 100.129856,8.29750757 C100.769875,8.90333925 101.603955,9.80762764 101.983371,10.3070345 C102.846105,11.4426082 103.920001,13.6106343 104.331198,15.0469157 L104.644636,16.1417354 L104.644636,34.343088 C104.644636,51.3329686 104.628169,52.6309743 104.39709,53.8445361 C104.098915,55.4105275 103.382706,57.6108274 102.785792,58.7946886 C100.719185,62.8934075 96.9114754,65.8462749 91.8639373,67.2645435 C88.5863872,68.1854749 90.0749847,68.1249708 68.3787809,68.2191085 C46.8326061,68.3125915 48.1344843,68.2624156 45.1138967,69.1160749 C39.2469119,70.7741997 34.9367987,75.3438536 33.1858355,81.7624052 C32.398703,84.6478242 32.4161719,84.3782473 32.3299756,94.9686465 L32.2497819,104.822014 L25.6808739,104.844523 C20.7220096,104.861544 18.8663741,104.822416 18.1099896,104.684856 L18.1099896,104.684861 Z M53.9802235,22.8144748 C56.4707115,21.6444518 57.9705134,18.9018507 57.5196357,16.3421669 C57.103726,13.9810262 55.4824576,12.0966468 53.282208,11.417057 C49.7657788,10.3309441 46.0966818,12.5721794 45.4478905,16.202587 C44.9202332,19.1551673 46.6278691,22.0295681 49.5159469,23.0501915 C50.1613694,23.2782842 50.5764079,23.3245171 51.6828047,23.2915936 C52.8882087,23.2557393 53.1620458,23.1988509 53.9802235,22.8144748 L53.9802235,22.8144748 Z" id="path2997" fill="#FED142"></path>
                    <path d="M18.1099896,104.684861 C14.2607551,103.984972 10.4701262,101.652021 7.79150893,98.3343215 C2.71786564,92.0501832 0.156605679,81.5734602 0.478136036,68.4193083 C0.678507107,60.2221474 1.90397839,54.1371665 4.39695407,48.9607141 C7.61037932,42.2883171 12.4116811,38.3313787 18.8932698,37.0137337 C20.3129787,36.7251219 20.3841434,36.7243715 45.3889122,36.7343574 C59.1785762,36.7398463 70.5621709,36.7055531 70.6857876,36.6581166 C70.8819589,36.5828377 70.9105517,36.2778145 70.9105517,34.2600189 C70.9105517,32.988506 70.8951424,31.9333829 70.8763592,31.9153047 C70.8575256,31.8972265 63.205793,31.8510339 53.8724642,31.8126617 L36.9027819,31.7428969 L36.8675319,22.923211 C36.8289583,13.2633312 36.8212033,13.3753456 37.6482388,11.6012987 C40.5152321,5.45126143 48.9607745,1.71465568 62.4941358,0.608601321 C63.4726255,0.528634179 66.1207213,0.426993321 68.3787809,0.382739464 C83.3617783,0.0891019286 94.3525873,2.82884271 100.129856,8.29750757 C100.769875,8.90333925 101.603955,9.80762764 101.983371,10.3070345 C102.846105,11.4426082 103.920001,13.6106343 104.331198,15.0469157 L104.644636,16.1417354 L104.644636,34.343088 C104.644636,51.3329686 104.628169,52.6309743 104.39709,53.8445361 C104.098915,55.4105275 103.382706,57.6108274 102.785792,58.7946886 C100.719185,62.8934075 96.9114754,65.8462749 91.8639373,67.2645435 C88.5863873,68.1854749 90.0749847,68.1249708 68.3787809,68.2191085 C46.8326061,68.3125915 48.1344843,68.2624156 45.1138967,69.1160749 C39.2469119,70.7741997 34.9367987,75.3438536 33.1858355,81.7624052 C32.398703,84.6478242 32.4161719,84.3782473 32.3299756,94.9686465 L32.2497819,104.822014 L25.6808739,104.844523 C20.7220096,104.861544 18.8663741,104.822416 18.1099896,104.684856 L18.1099896,104.684861 Z M53.9802235,22.8144748 C56.4707115,21.6444517 57.9705134,18.9018507 57.5196357,16.3421669 C57.103726,13.9810262 55.4824576,12.0966468 53.282208,11.417057 C49.7657788,10.3309441 46.0966818,12.5721794 45.4478905,16.202587 C44.9202332,19.1551673 46.6278691,22.0295681 49.5159469,23.0501915 C50.1613694,23.2782842 50.5764079,23.3245171 51.6828047,23.2915936 C52.8882087,23.2557393 53.1620458,23.1988509 53.9802235,22.8144748 L53.9802235,22.8144748 Z" id="path2995" fill="#FFFFFF"></path>
                </g>
            </g>
        </g>
    </g>
</svg>