<?xml version="1.0" encoding="UTF-8"?>
<svg width="256px" height="256px" viewBox="0 0 256 256" version="1.1" xmlns="http://www.w3.org/2000/svg" xmlns:xlink="http://www.w3.org/1999/xlink">
    <!-- Generator: Sketch 43.2 (39069) - http://www.bohemiancoding.com/sketch -->
    <title>ruby</title>
    <desc>Created with Sketch.</desc>
    <defs></defs>
    <g id="langs" stroke="none" stroke-width="1" fill="none" fill-rule="evenodd">
        <g id="teamcode" transform="translate(-426.000000, -1077.000000)">
            <g id="ruby" transform="translate(426.000000, 1077.000000)">
                <rect id="Rectangle" fill="#D42327" x="0" y="0" width="256" height="256"></rect>
                <g id="ruby-icon" transform="translate(56.000000, 63.000000)" fill-rule="nonzero" fill="#FFFFFF">
                    <path d="M144.966159,41.5087477 C144.983079,41.4096411 144.992748,41.3129517 144.997583,41.2114279 C145.002417,41.0929834 145,40.9793734 144.990331,40.8609289 C144.980662,40.759405 144.966159,40.6627157 144.941986,40.5636091 C144.915397,40.4475818 144.879138,40.336389 144.835628,40.2251963 C144.813873,40.1671826 144.809038,40.1067518 144.782449,40.0511554 C144.763111,40.0100624 144.72927,39.9786384 144.707515,39.9375454 C144.68576,39.8964524 144.676091,39.8529422 144.651918,39.8118492 L120.479575,1.13610013 C120.368382,0.959642023 120.237852,0.800104559 120.0904,0.659904968 C120.087983,0.657487734 120.085566,0.657487734 120.083149,0.6550705 C119.875267,0.45927452 119.628709,0.31907493 119.36523,0.207882151 C119.331389,0.193378745 119.309634,0.164371933 119.273375,0.149868528 C119.246786,0.14019959 119.217779,0.145034059 119.191189,0.137782356 C118.947049,0.0555963893 118.695656,0 118.432178,0 L26.5772736,0 C26.3162123,0 26.0672372,0.0555963893 25.827931,0.135365122 C25.8013414,0.142616825 25.7747518,0.137782356 25.7505795,0.147451293 C25.714321,0.159537465 25.6925659,0.188544277 25.6587246,0.203047683 C25.4073322,0.306988758 25.1704432,0.44235388 24.9649783,0.626063688 C24.9528922,0.638149859 24.9359715,0.645401562 24.9238853,0.6550705 C24.7740168,0.79527009 24.6410689,0.957224789 24.5298762,1.13368289 L0.357532994,39.809432 C0.33336065,39.8481077 0.323691713,39.8940352 0.301936604,39.9351281 C0.280181495,39.9762211 0.246340215,40.0076452 0.22700234,40.0487381 C0.200412763,40.1043345 0.195578294,40.1647654 0.171405951,40.222779 C0.127895733,40.3339718 0.0916372187,40.4451646 0.0650476413,40.5611918 C0.0432925324,40.6602984 0.0263718922,40.759405 0.0167029549,40.8609289 C-0.000217685276,40.9793734 -0.00263491959,41.0954006 0.00219954904,41.2114279 C0.00703401767,41.3129517 0.0167029549,41.4096411 0.0336235951,41.5087477 C0.0529614697,41.6247749 0.0843855158,41.7383849 0.123061265,41.8519949 C0.154485311,41.9462671 0.188326591,42.038122 0.231836809,42.1299769 C0.253591918,42.1734871 0.260843621,42.2218318 0.285015964,42.265342 C0.323691713,42.3354418 0.381705337,42.388621 0.425215554,42.4538863 C0.459056835,42.5046482 0.478394709,42.5602446 0.519487693,42.6085893 L70.5926933,129.595183 C70.5975278,129.602435 70.6023622,129.60727 70.6071967,129.612104 L70.6192829,129.629025 C70.6265346,129.638694 70.6386207,129.641111 70.6458724,129.65078 C70.8440857,129.890086 71.0906436,130.071379 71.3589566,130.216413 C71.4314736,130.255088 71.4991562,130.28893 71.5740904,130.320354 C71.8665758,130.443633 72.1759818,130.530653 72.4998912,130.530653 C72.7754559,130.530653 73.0534378,130.482308 73.3290025,130.383202 C73.3700955,130.368698 73.3966851,130.334857 73.4377781,130.317936 C73.561057,130.267175 73.6577464,130.184989 73.7689392,130.114889 C73.952649,129.998862 74.1242726,129.878 74.2668894,129.72088 C74.3007307,129.684621 74.3514926,129.6677 74.3829167,129.629025 L144.482712,42.6085893 C144.521388,42.5602446 144.540725,42.502231 144.576984,42.4538863 C144.622911,42.388621 144.678508,42.3354418 144.717184,42.265342 C144.741356,42.2218318 144.748608,42.1734871 144.770363,42.1299769 C144.813873,42.038122 144.847714,41.9486843 144.879138,41.8519949 C144.91298,41.7383849 144.946821,41.6271922 144.966159,41.5087477 Z M77.5809177,4.83688587 L114.948943,4.83688587 L103.201184,36.3697075 L77.5809177,4.83688587 Z M98.845328,38.6781663 L46.1568716,38.6781663 L72.4998912,6.25580241 L98.845328,38.6781663 Z M41.6293917,36.5800069 L30.0290842,4.83688587 L67.4212819,4.83688587 L41.6293917,36.5800069 Z M100.539809,43.5126349 L72.0768752,119.911743 L44.160236,43.5126349 L100.539809,43.5126349 Z M118.978473,7.86568046 L138.236578,38.6805835 L107.499027,38.6805835 L118.978473,7.86568046 Z M25.9995546,7.89710451 L37.2469459,38.6781663 L6.76320393,38.6781663 L25.9995546,7.89710451 Z M39.0139442,43.5126349 L65.2143469,115.217474 L7.45211571,43.5126349 L39.0139442,43.5126349 Z M78.2940018,117.069075 L105.698187,43.5126349 L137.547667,43.5126349 L78.2940018,117.069075 Z" id="Shape"></path>
                </g>
            </g>
        </g>
    </g>
</svg>