<?xml version="1.0" encoding="UTF-8"?>
<svg width="256px" height="256px" viewBox="0 0 256 256" version="1.1" xmlns="http://www.w3.org/2000/svg" xmlns:xlink="http://www.w3.org/1999/xlink">
    <!-- Generator: Sketch 43.2 (39069) - http://www.bohemiancoding.com/sketch -->
    <title>sql</title>
    <desc>Created with Sketch.</desc>
    <defs></defs>
    <g id="langs" stroke="none" stroke-width="1" fill="none" fill-rule="evenodd">
        <g id="teamcode" transform="translate(-107.000000, -120.000000)">
            <g id="sql" transform="translate(107.000000, 120.000000)">
                <rect id="Rectangle-2" fill="#A73260" x="0" y="0" width="256" height="256"></rect>
                <path d="M47.412,145.496 L52.83,138.358 C55.1806784,140.078009 57.6029876,141.310663 60.097,142.056 C62.5910125,142.801337 65.3286518,143.174 68.31,143.174 C71.8646845,143.174 74.7169893,142.428674 76.867,140.938 C79.0170108,139.447326 80.092,137.211348 80.092,134.23 C80.092,132.051322 79.5760052,130.317006 78.544,129.027 C77.5119949,127.736994 76.0356763,126.690671 74.115,125.888 C72.1943238,125.085329 69.5426836,124.225338 66.16,123.308 C60.6559725,121.87466 56.4850142,119.767681 53.647,116.987 C50.8089858,114.206319 49.39,110.465357 49.39,105.764 C49.39,102.151982 50.3359906,99.0560129 52.228,96.476 C54.1200095,93.8959871 56.6856505,91.9466733 59.925,90.628 C63.1643496,89.3093267 66.819313,88.65 70.89,88.65 C78.3433706,88.65 84.9079716,90.6566466 90.584,94.67 L85.51,101.98 C83.101988,100.489326 80.7513448,99.4000034 78.458,98.712 C76.1646552,98.0239966 73.7280129,97.68 71.148,97.68 C67.9373173,97.68 65.3716763,98.2963272 63.451,99.529 C61.5303238,100.761673 60.57,102.610654 60.57,105.076 C60.57,107.598679 61.5446569,109.504994 63.494,110.795 C65.4433431,112.085006 68.682644,113.331994 73.212,114.536 C79.1746965,116.084008 83.7326509,118.305652 86.886,121.201 C90.0393491,124.096348 91.616,128.295972 91.616,133.8 C91.616,137.928021 90.5840103,141.410986 88.52,144.249 C86.4559897,147.087014 83.6610177,149.193993 80.135,150.57 C76.6089824,151.946007 72.6960215,152.634 68.396,152.634 C64.325313,152.634 60.5126845,152.017673 56.958,150.785 C53.4033156,149.552327 50.2213474,147.789345 47.412,145.496 Z M140.64,155.988 C142.130674,156.962672 144.108654,157.679331 146.574,158.138 C149.039346,158.596669 152.335979,158.826 156.464,158.826 L156.464,168.028 C149.870634,168.028 144.524354,167.454672 140.425,166.308 C136.325646,165.161328 133.086345,163.455678 130.707,161.191 C128.327655,158.926322 126.364008,155.959352 124.816,152.29 C119.369306,151.601997 114.711019,149.839014 110.841,147.001 C106.970981,144.162986 104.018344,140.493689 101.983,135.993 C99.9476565,131.492311 98.93,126.346696 98.93,120.556 C98.93,114.191968 100.162654,108.587691 102.628,103.743 C105.093346,98.8983091 108.66231,95.1430133 113.335,92.477 C118.00769,89.8109867 123.583301,88.478 130.062,88.478 C136.540699,88.478 142.11631,89.8109867 146.789,92.477 C151.46169,95.1430133 155.030654,98.8983091 157.496,103.743 C159.961346,108.587691 161.194,114.191968 161.194,120.556 C161.194,128.984042 159.058355,136.007305 154.787,141.626 C150.515645,147.244695 144.538705,150.713327 136.856,152.032 C137.888005,153.694675 139.149326,155.013328 140.64,155.988 Z M115.399,136.896 C118.695683,140.909353 123.583301,142.916 130.062,142.916 C136.540699,142.916 141.428317,140.909353 144.725,136.896 C148.021683,132.882647 149.67,127.436034 149.67,120.556 C149.67,113.675966 148.021683,108.229353 144.725,104.216 C141.428317,100.202647 136.540699,98.196 130.062,98.196 C123.583301,98.196 118.695683,100.202647 115.399,104.216 C112.102317,108.229353 110.454,113.675966 110.454,120.556 C110.454,127.436034 112.102317,132.882647 115.399,136.896 Z M183.644,141.626 L209.96,141.626 L209.96,151 L172.378,151 L172.378,90.112 L183.644,90.112 L183.644,141.626 Z" id="SQL" fill="#FFFFFF"></path>
            </g>
        </g>
    </g>
</svg>