<?xml version="1.0" encoding="UTF-8"?>
<svg width="256px" height="256px" viewBox="0 0 256 256" version="1.1" xmlns="http://www.w3.org/2000/svg" xmlns:xlink="http://www.w3.org/1999/xlink">
    <!-- Generator: Sketch 43.2 (39069) - http://www.bohemiancoding.com/sketch -->
    <title>swift</title>
    <desc>Created with Sketch.</desc>
    <defs></defs>
    <g id="langs" stroke="none" stroke-width="1" fill="none" fill-rule="evenodd">
        <g id="teamcode" transform="translate(-98.000000, -736.000000)">
            <g id="swift" transform="translate(98.000000, 736.000000)">
                <rect id="Rectangle" fill="#FE4C19" x="0" y="0" width="256" height="256"></rect>
                <path d="M141.90625,75 C192.90625,108 177.312498,149.5 177.312498,149.5 C177.312498,149.5 182.812498,155.75 185.562498,163.5 C188.312498,171.25 188.282197,180.75 187.782197,181 C187.282197,181.25 180.835419,170.25 169.562498,170.25 C158.289577,170.25 152.562494,181 132.562498,181 C87.5305543,181 68,144.062501 68,144.062501 C68,144.062501 87.8125,158.25 108.562502,157.75 C129.312504,157.25 135.062498,151.25 135.062498,151.25 C135.062498,151.25 125.784476,143.486475 109.8125,127.875 C93.8405236,112.263525 78.8125,90.75 78.8125,90.75 C78.8125,90.75 102.889196,109.831967 110.61191,115.445082 C118.334624,121.058197 126.057338,126.145082 126.057338,126.145082 C126.057338,126.145082 118.577987,118.076231 113.3125,111.586067 C108.047013,105.095903 94.5625,85.5 94.5625,85.5 C94.5625,85.5 115.243916,104.172131 124.653208,111.586066 C134.0625,119 152.0625,131.5 152.0625,131.5 C152.0625,131.5 162.90625,106.75 141.90625,75 Z" id="countour" fill="#FFFFFF" fill-rule="nonzero"></path>
            </g>
        </g>
    </g>
</svg>