<?xml version="1.0" encoding="UTF-8"?>
<svg width="24px" height="24px" viewBox="0 0 24 24" version="1.1" xmlns="http://www.w3.org/2000/svg" xmlns:xlink="http://www.w3.org/1999/xlink">
    <!-- Generator: Sketch 43.2 (39069) - http://www.bohemiancoding.com/sketch -->
    <title>files</title>
    <desc>Created with Sketch.</desc>
    <defs></defs>
    <g id="icons" stroke="none" stroke-width="1" fill="none" fill-rule="evenodd">
        <g id="files" stroke="#243759" stroke-width="1.5">
            <path d="M15.75,17.2547619 L15.75,18.0093689 C15.75,19.2477055 14.7471967,20.25 13.5059386,20.25 L6.99406145,20.25 C5.75556228,20.25 4.75,19.2422977 4.75,18.0005775 L4.75,8.99942248 C4.75,7.75850089 5.76215225,6.75 7.00869203,6.75 L7.68257786,6.75 L15.75,17.2547619 Z" id="Rectangle"></path>
            <path d="M8.25,5.99942248 C8.25,4.76130957 9.26276095,3.75 10.49578,3.75 L13.5108056,3.75 C13.8549576,3.75 14.4069007,3.99228371 14.6348722,4.24170691 L18.773956,8.77027136 C19.0190446,9.03842235 19.25,9.63365233 19.25,9.99754465 L19.25,15.0031303 C19.25,16.2452641 18.2468466,17.25 17.0059386,17.25 L10.4940614,17.25 C9.25556228,17.25 8.25,16.2422977 8.25,15.0005775 L8.25,5.99942248 Z" id="Rectangle"></path>
            <path d="M16,10 L13.9989566,10 C13.4472481,10 13,9.55453153 13,9.00272158 L13,8.6842041 L13,7" id="Rectangle-2" stroke-linecap="round"></path>
        </g>
    </g>
</svg>